<svg width="15" height="15" viewBox="0 0 15 15" fill="none" xmlns="http://www.w3.org/2000/svg">
<path fill-rule="evenodd" clip-rule="evenodd" d="M0.3894 4.36706C4.47035e-08 5.07846 0 5.93662 0 7.65293V8.79375C0 11.7194 8.9407e-08 13.1822 0.878678 14.0911C1.75736 15 3.17157 15 6 15H9C11.8284 15 13.2427 15 14.1213 14.0911C15 13.1822 15 11.7194 15 8.79375V7.65293C15 5.93662 15 5.07846 14.6106 4.36706C14.2212 3.65566 13.5098 3.21413 12.087 2.33109L10.587 1.40015C9.08295 0.466717 8.33093 0 7.5 0C6.66907 0 5.91704 0.466717 4.41302 1.40015L2.91302 2.3311C1.49021 3.21413 0.7788 3.65566 0.3894 4.36706ZM5.25 11.4375C4.93934 11.4375 4.6875 11.6893 4.6875 12C4.6875 12.3107 4.93934 12.5625 5.25 12.5625H9.75C10.0607 12.5625 10.3125 12.3107 10.3125 12C10.3125 11.6893 10.0607 11.4375 9.75 11.4375H5.25Z" fill="#3674B5"/>
</svg>
