<svg width="12" height="12" viewBox="0 0 12 12" fill="none" xmlns="http://www.w3.org/2000/svg">
<path d="M3.45 0.444445C3.45 0.198987 3.24853 0 3 0C2.75147 0 2.55 0.198987 2.55 0.444445V1.3803C1.6864 1.4486 1.11946 1.61622 0.702941 2.0276C0.286421 2.43897 0.116705 2.99892 0.0475554 3.85185H11.9524C11.8833 2.99892 11.7136 2.43897 11.297 2.0276C10.8805 1.61622 10.3136 1.4486 9.45 1.3803V0.444445C9.45 0.198987 9.24852 0 9 0C8.75148 0 8.55 0.198987 8.55 0.444445V1.34098C8.15082 1.33333 7.7034 1.33333 7.2 1.33333H4.8C4.29658 1.33333 3.84916 1.33333 3.45 1.34098V0.444445Z" fill="white"/>
<path fill-rule="evenodd" clip-rule="evenodd" d="M0 6.07407C0 5.57689 6.79865e-08 5.13499 0.00774007 4.74074H11.9923C12 5.13499 12 5.57689 12 6.07407V7.25926C12 9.49404 12 10.6115 11.297 11.3057C10.5941 12 9.46272 12 7.2 12H4.8C2.53726 12 1.40589 12 0.702942 11.3057C1.19209e-07 10.6115 0 9.49404 0 7.25926V6.07407ZM9 7.25926C9.33138 7.25926 9.6 6.99396 9.6 6.66667C9.6 6.33938 9.33138 6.07407 9 6.07407C8.66862 6.07407 8.4 6.33938 8.4 6.66667C8.4 6.99396 8.66862 7.25926 9 7.25926ZM9 9.62963C9.33138 9.62963 9.6 9.36433 9.6 9.03704C9.6 8.70975 9.33138 8.44444 9 8.44444C8.66862 8.44444 8.4 8.70975 8.4 9.03704C8.4 9.36433 8.66862 9.62963 9 9.62963ZM6.6 6.66667C6.6 6.99396 6.33138 7.25926 6 7.25926C5.66862 7.25926 5.4 6.99396 5.4 6.66667C5.4 6.33938 5.66862 6.07407 6 6.07407C6.33138 6.07407 6.6 6.33938 6.6 6.66667ZM6.6 9.03704C6.6 9.36433 6.33138 9.62963 6 9.62963C5.66862 9.62963 5.4 9.36433 5.4 9.03704C5.4 8.70975 5.66862 8.44444 6 8.44444C6.33138 8.44444 6.6 8.70975 6.6 9.03704ZM3 7.25926C3.33137 7.25926 3.6 6.99396 3.6 6.66667C3.6 6.33938 3.33137 6.07407 3 6.07407C2.66863 6.07407 2.4 6.33938 2.4 6.66667C2.4 6.99396 2.66863 7.25926 3 7.25926ZM3 9.62963C3.33137 9.62963 3.6 9.36433 3.6 9.03704C3.6 8.70975 3.33137 8.44444 3 8.44444C2.66863 8.44444 2.4 8.70975 2.4 9.03704C2.4 9.36433 2.66863 9.62963 3 9.62963Z" fill="white"/>
</svg>
