<svg width="17" height="17" viewBox="0 0 17 17" fill="none" xmlns="http://www.w3.org/2000/svg">
<path d="M4.8875 0.62963C4.8875 0.281898 4.60208 0 4.25 0C3.89792 0 3.6125 0.281898 3.6125 0.62963V1.95543C2.38907 2.05218 1.5859 2.28964 0.995834 2.87243C0.405764 3.45521 0.165333 4.24846 0.0673702 5.45679H16.9326C16.8347 4.24846 16.5942 3.45521 16.0041 2.87243C15.4141 2.28964 14.6109 2.05218 13.3875 1.95543V0.62963C13.3875 0.281898 13.1021 0 12.75 0C12.3979 0 12.1125 0.281898 12.1125 0.62963V1.89972C11.547 1.88889 10.9131 1.88889 10.2 1.88889H6.8C6.08682 1.88889 5.45298 1.88889 4.8875 1.89972V0.62963Z" fill="#E9652B"/>
<path fill-rule="evenodd" clip-rule="evenodd" d="M0 8.60494C0 7.90059 9.65148e-08 7.27457 0.0109651 6.71605H16.989C17 7.27457 17 7.90059 17 8.60494V10.284C17 13.4499 17 15.033 16.0041 16.0164C15.0084 17 13.4055 17 10.2 17H6.8C3.59445 17 1.99168 17 0.995835 16.0164C9.72748e-08 15.033 0 13.4499 0 10.284V8.60494ZM12.75 10.284C13.2195 10.284 13.6 9.9081 13.6 9.44444C13.6 8.98079 13.2195 8.60494 12.75 8.60494C12.2805 8.60494 11.9 8.98079 11.9 9.44444C11.9 9.9081 12.2805 10.284 12.75 10.284ZM12.75 13.642C13.2195 13.642 13.6 13.2661 13.6 12.8025C13.6 12.3388 13.2195 11.963 12.75 11.963C12.2805 11.963 11.9 12.3388 11.9 12.8025C11.9 13.2661 12.2805 13.642 12.75 13.642ZM9.35 9.44444C9.35 9.9081 8.96945 10.284 8.5 10.284C8.03055 10.284 7.65 9.9081 7.65 9.44444C7.65 8.98079 8.03055 8.60494 8.5 8.60494C8.96945 8.60494 9.35 8.98079 9.35 9.44444ZM9.35 12.8025C9.35 13.2661 8.96945 13.642 8.5 13.642C8.03055 13.642 7.65 13.2661 7.65 12.8025C7.65 12.3388 8.03055 11.963 8.5 11.963C8.96945 11.963 9.35 12.3388 9.35 12.8025ZM4.25 10.284C4.71944 10.284 5.1 9.9081 5.1 9.44444C5.1 8.98079 4.71944 8.60494 4.25 8.60494C3.78056 8.60494 3.4 8.98079 3.4 9.44444C3.4 9.9081 3.78056 10.284 4.25 10.284ZM4.25 13.642C4.71944 13.642 5.1 13.2661 5.1 12.8025C5.1 12.3388 4.71944 11.963 4.25 11.963C3.78056 11.963 3.4 12.3388 3.4 12.8025C3.4 13.2661 3.78056 13.642 4.25 13.642Z" fill="#E9652B"/>
</svg>
