<svg width="29" height="29" viewBox="0 0 29 29" fill="none" xmlns="http://www.w3.org/2000/svg">
<path d="M14.5 0C6.496 0 0 6.496 0 14.5C0 22.504 6.496 29 14.5 29C22.504 29 29 22.504 29 14.5C29 6.496 22.504 0 14.5 0ZM20.3435 15.2685L15.9935 19.6185C15.776 19.836 15.5005 19.9375 15.225 19.9375C14.9495 19.9375 14.674 19.836 14.4565 19.6185C14.036 19.198 14.036 18.502 14.4565 18.0815L16.9505 15.5875H9.425C8.8305 15.5875 8.3375 15.0945 8.3375 14.5C8.3375 13.9055 8.8305 13.4125 9.425 13.4125H16.9505L14.4565 10.9185C14.036 10.498 14.036 9.802 14.4565 9.3815C14.877 8.961 15.573 8.961 15.9935 9.3815L20.3435 13.7315C20.764 14.152 20.764 14.848 20.3435 15.2685Z" fill="white"/>
</svg>
