<svg width="112" height="42" viewBox="0 0 112 42" fill="none" xmlns="http://www.w3.org/2000/svg">
<path fill-rule="evenodd" clip-rule="evenodd" d="M0 20.7577L21.0058 0L29.2348 6.63875C29.2348 6.63875 26.3821 6.69601 23.9052 7.58201C21.4284 8.46775 20.1923 9.7699 18.8866 11.1555C16.0298 14.1882 15.215 17.1025 15.236 20.816C15.2565 24.5295 16.3797 26.5295 18.5527 29.2491C19.2883 30.1702 20.0126 31.056 21.246 31.7251C21.6663 31.9534 23.4407 33.2388 24.6092 33.5984C25.7778 33.9581 28.9124 34.0945 28.9124 34.0945L21.246 42L0 20.7577Z" fill="#3674B5"/>
<path d="M29.3612 25.8851C32.4754 25.8851 35 23.3781 35 20.2856C35 17.193 32.4754 14.686 29.3612 14.686C26.247 14.686 23.7224 17.193 23.7224 20.2856C23.7224 23.3781 26.247 25.8851 29.3612 25.8851Z" fill="#3674B5"/>
<path d="M55.9006 14.4545H59.4091V23.8366C59.4091 24.9209 59.151 25.8655 58.6349 26.6705C58.1188 27.4706 57.3991 28.0909 56.4759 28.5312C55.5526 28.9669 54.4801 29.1847 53.2585 29.1847C52.0227 29.1847 50.9432 28.9669 50.0199 28.5312C49.0966 28.0909 48.3793 27.4706 47.8679 26.6705C47.3565 25.8655 47.1009 24.9209 47.1009 23.8366V14.4545H50.6165V23.5312C50.6165 24.0331 50.7254 24.4806 50.9432 24.8736C51.1657 25.2666 51.4759 25.5743 51.8736 25.7969C52.2713 26.0194 52.733 26.1307 53.2585 26.1307C53.7841 26.1307 54.2434 26.0194 54.6364 25.7969C55.0341 25.5743 55.3442 25.2666 55.5668 24.8736C55.7893 24.4806 55.9006 24.0331 55.9006 23.5312V14.4545ZM61.6126 14.4545H65.9663L69.6594 23.4602H69.8299L73.5231 14.4545H77.8768V29H74.4535V20.0653H74.3327L70.8384 28.9077H68.6509L65.1566 20.0156H65.0359V29H61.6126V14.4545ZM80.0696 29V14.4545H83.5852V20.6051H83.777L88.5852 14.4545H92.7259L87.5696 20.946L92.8182 29H88.6136L84.9915 23.2827L83.5852 25.0582V29H80.0696ZM94.1126 14.4545H98.4663L102.159 23.4602H102.33L106.023 14.4545H110.377V29H106.953V20.0653H106.833L103.338 28.9077H101.151L97.6566 20.0156H97.5359V29H94.1126V14.4545Z" fill="white"/>
</svg>
