<svg width="15" height="15" viewBox="0 0 15 15" fill="none" xmlns="http://www.w3.org/2000/svg">
<path d="M11.4697 9.21967C11.1768 9.51255 11.1768 9.98745 11.4697 10.2803C11.7625 10.5732 12.2374 10.5732 12.5303 10.2803L14.7151 8.09557C14.7263 8.08432 14.7373 8.07277 14.7478 8.061C14.9025 7.9236 15 7.7232 15 7.5C15 7.2768 14.9025 7.0764 14.7478 6.939C14.7373 6.92722 14.7263 6.91567 14.7151 6.90442L12.5303 4.71967C12.2374 4.42678 11.7625 4.42678 11.4697 4.71967C11.1768 5.01256 11.1768 5.48744 11.4697 5.78033L12.4393 6.75H8.25C7.83577 6.75 7.5 7.08577 7.5 7.5C7.5 7.91422 7.83577 8.25 8.25 8.25H12.4393L11.4697 9.21967Z" fill="#FB333D"/>
<path d="M2.25 0C1.00736 0 0 1.00736 0 2.25V12.75C0 13.9927 1.00736 15 2.25 15H9.375C10.4105 15 11.25 14.1605 11.25 13.125V11.0494C11.1389 10.9852 11.0344 10.9057 10.9393 10.8106C10.4485 10.3198 10.369 9.57367 10.7005 9H8.25C7.42155 9 6.75 8.32845 6.75 7.5C6.75 6.67155 7.42155 6 8.25 6H10.7005C10.369 5.42635 10.4485 4.68011 10.9393 4.18934C11.0344 4.09432 11.1389 4.01472 11.25 3.95053V1.875C11.25 0.839467 10.4105 0 9.375 0H2.25Z" fill="#FB333D"/>
</svg>
