<svg width="15" height="14" viewBox="0 0 15 14" fill="none" xmlns="http://www.w3.org/2000/svg">
<path d="M14.4231 5.47826H11.5385V0.608696C11.5385 0.243478 11.3077 0 10.9615 0H0.576923C0.230769 0 0 0.243478 0 0.608696V11.5652C0 12.9043 1.03846 14 2.30769 14H12.1154C12.1731 14 12.2308 14 12.2885 13.9391C12.4038 13.9391 12.5192 14 12.6923 14C13.9615 14 15 12.9043 15 11.5652V6.08696C15 5.72174 14.7692 5.47826 14.4231 5.47826ZM4.03846 6.69565H2.88462C2.53846 6.69565 2.30769 6.45217 2.30769 6.08696C2.30769 5.72174 2.53846 5.47826 2.88462 5.47826H4.03846C4.38462 5.47826 4.61538 5.72174 4.61538 6.08696C4.61538 6.45217 4.38462 6.69565 4.03846 6.69565ZM6.34615 4.26087H2.88462C2.53846 4.26087 2.30769 4.01739 2.30769 3.65217C2.30769 3.28696 2.53846 3.04348 2.88462 3.04348H6.34615C6.69231 3.04348 6.92308 3.28696 6.92308 3.65217C6.92308 4.01739 6.69231 4.26087 6.34615 4.26087ZM13.8462 11.5652C13.8462 12.2348 13.3269 12.7826 12.6923 12.7826C12.5769 12.7826 12.4615 12.7826 12.3462 12.7217C12 12.6 11.7692 12.2957 11.6538 11.9913V11.9304C11.5385 11.8087 11.5385 11.687 11.5385 11.5652V6.69565H13.8462V11.5652Z" fill="#3674B5"/>
</svg>
