<svg width="11" height="14" viewBox="0 0 11 14" fill="none" xmlns="http://www.w3.org/2000/svg">
<path d="M10.3889 4.88889H9.16667V3.36111C9.16667 2.46969 8.81255 1.61478 8.18222 0.984447C7.55189 0.354116 6.69698 0 5.80556 0H5.19444C4.30302 0 3.44811 0.354116 2.81778 0.984447C2.18745 1.61478 1.83333 2.46969 1.83333 3.36111V4.88889H0.611111C0.449034 4.88889 0.293596 4.95327 0.17899 5.06788C0.0643847 5.18248 0 5.33792 0 5.5V12.8333C0 12.9954 0.0643847 13.1508 0.17899 13.2655C0.293596 13.3801 0.449034 13.4444 0.611111 13.4444H10.3889C10.551 13.4444 10.7064 13.3801 10.821 13.2655C10.9356 13.1508 11 12.9954 11 12.8333V5.5C11 5.33792 10.9356 5.18248 10.821 5.06788C10.7064 4.95327 10.551 4.88889 10.3889 4.88889ZM3.05556 3.36111C3.05556 2.79384 3.2809 2.24981 3.68202 1.84869C4.08314 1.44757 4.62718 1.22222 5.19444 1.22222H5.80556C6.37282 1.22222 6.91686 1.44757 7.31798 1.84869C7.7191 2.24981 7.94444 2.79384 7.94444 3.36111V4.88889H3.05556V3.36111ZM2.75 10.0833C2.5687 10.0833 2.39147 10.0296 2.24073 9.92885C2.08998 9.82812 1.97249 9.68496 1.90311 9.51746C1.83373 9.34996 1.81558 9.16565 1.85095 8.98783C1.88632 8.81002 1.97362 8.64668 2.10182 8.51849C2.23002 8.39029 2.39335 8.30298 2.57117 8.26761C2.74898 8.23224 2.93329 8.2504 3.10079 8.31978C3.26829 8.38916 3.41146 8.50665 3.51218 8.65739C3.61291 8.80814 3.66667 8.98537 3.66667 9.16667C3.67093 9.28819 3.65014 9.4093 3.60559 9.52245C3.56103 9.63559 3.49366 9.73836 3.40768 9.82434C3.32169 9.91033 3.21893 9.9777 3.10578 10.0223C2.99263 10.0668 2.87153 10.0876 2.75 10.0833ZM5.5 10.0833C5.3187 10.0833 5.14147 10.0296 4.99073 9.92885C4.83998 9.82812 4.72249 9.68496 4.65311 9.51746C4.58373 9.34996 4.56558 9.16565 4.60095 8.98783C4.63632 8.81002 4.72362 8.64668 4.85182 8.51849C4.98002 8.39029 5.14335 8.30298 5.32117 8.26761C5.49898 8.23224 5.68329 8.2504 5.85079 8.31978C6.01829 8.38916 6.16146 8.50665 6.26218 8.65739C6.36291 8.80814 6.41667 8.98537 6.41667 9.16667C6.42093 9.28819 6.40014 9.4093 6.35559 9.52245C6.31103 9.63559 6.24366 9.73836 6.15768 9.82434C6.07169 9.91033 5.96893 9.9777 5.85578 10.0223C5.74263 10.0668 5.62153 10.0876 5.5 10.0833ZM8.25 10.0833C8.0687 10.0833 7.89147 10.0296 7.74073 9.92885C7.58998 9.82812 7.47249 9.68496 7.40311 9.51746C7.33373 9.34996 7.31558 9.16565 7.35095 8.98783C7.38632 8.81002 7.47362 8.64668 7.60182 8.51849C7.73002 8.39029 7.89335 8.30298 8.07117 8.26761C8.24898 8.23224 8.43329 8.2504 8.60079 8.31978C8.76829 8.38916 8.91146 8.50665 9.01218 8.65739C9.1129 8.80814 9.16667 8.98537 9.16667 9.16667C9.17093 9.28819 9.15014 9.4093 9.10559 9.52245C9.06103 9.63559 8.99366 9.73836 8.90768 9.82434C8.82169 9.91033 8.71893 9.9777 8.60578 10.0223C8.49263 10.0668 8.37153 10.0876 8.25 10.0833Z" fill="black"/>
</svg>
