<svg width="15" height="14" viewBox="0 0 15 14" fill="none" xmlns="http://www.w3.org/2000/svg">
<path d="M13.5 5C13.6264 4.99964 13.7482 5.04714 13.8409 5.13295C13.9337 5.21875 13.9905 5.3365 14 5.4625V12.5C14.0003 12.8885 13.8498 13.2619 13.5803 13.5417C13.3108 13.8215 12.9432 13.9858 12.555 14H2.5C2.11152 14.0003 1.7381 13.8498 1.45832 13.5803C1.17855 13.3108 1.01424 12.9432 1 12.555V5.5C0.999644 5.37364 1.04714 5.25183 1.13295 5.15907C1.21875 5.06631 1.3365 5.00948 1.4625 5H13.5ZM9.625 7.085L9.595 7.11L6.7325 10.2125L5.4325 8.9625C5.3666 8.89797 5.27936 8.8598 5.18724 8.8552C5.09512 8.85059 5.00451 8.87987 4.9325 8.9375L4.905 8.9625L4.37 9.4425C4.33604 9.46883 4.30813 9.50214 4.28816 9.54019C4.2682 9.57824 4.25664 9.62014 4.25427 9.66305C4.2519 9.70595 4.25877 9.74887 4.27442 9.78888C4.29008 9.8289 4.31415 9.86509 4.345 9.895L4.37 9.9225L6.2025 11.6575C6.34491 11.7987 6.53695 11.8786 6.7375 11.88C6.83695 11.8827 6.93585 11.8643 7.02765 11.826C7.11945 11.7876 7.20206 11.7302 7.27 11.6575L8.75 10.085L8.8575 9.975L8.9625 9.8625L9.1 9.7175L9.1525 9.6625L9.2575 9.5525L10.6625 8.07C10.7138 8.00615 10.7434 7.9276 10.747 7.84577C10.7506 7.76395 10.728 7.68311 10.6825 7.615L10.6625 7.59L10.1275 7.11C10.0615 7.04479 9.97371 7.0062 9.88102 7.00159C9.78833 6.99697 9.69719 7.02667 9.625 7.085ZM13.5 0C13.8978 0 14.2794 0.158035 14.5607 0.43934C14.842 0.720644 15 1.10218 15 1.5V3C15 3.13261 14.9473 3.25979 14.8536 3.35355C14.7598 3.44732 14.6326 3.5 14.5 3.5H0.5C0.367392 3.5 0.240215 3.44732 0.146447 3.35355C0.0526785 3.25979 0 3.13261 0 3V1.5C0 1.10218 0.158035 0.720644 0.43934 0.43934C0.720644 0.158035 1.10218 0 1.5 0H13.5Z" fill="#3674B5"/>
</svg>
