<svg width="17" height="14" viewBox="0 0 17 14" fill="none" xmlns="http://www.w3.org/2000/svg">
<path d="M11.2864 5.34349C10.9107 2.88678 8.61452 1.19983 6.1578 1.57559C3.7011 1.95135 2.01415 4.24752 2.3899 6.70423C2.76566 9.16094 5.06183 10.8479 7.51854 10.4721C8.7469 10.2843 9.78283 9.61628 10.4647 8.68818C10.4656 8.68693 10.4665 8.68565 10.4674 8.68441C10.4677 8.68394 10.4681 8.68347 10.4684 8.68301C11.1477 7.75566 11.474 6.56958 11.2864 5.34349ZM12.7692 5.1167C12.9786 6.48597 12.7075 7.81784 12.0817 8.9409L16.6851 12.3276L16.7006 12.3392C17.0209 12.5877 17.0864 13.0477 16.8448 13.3761C16.6032 13.7046 16.1445 13.779 15.812 13.5471L15.7963 13.5358L11.1943 10.1503C10.3091 11.086 9.11725 11.7451 7.74533 11.9549C4.46972 12.4559 1.40817 10.2066 0.907158 6.93102C0.406152 3.65541 2.65541 0.593855 5.93102 0.0928423C9.20664 -0.408169 12.2682 1.84109 12.7692 5.1167Z" fill="#E9652B"/>
</svg>
