<svg width="12" height="15" viewBox="0 0 12 15" fill="none" xmlns="http://www.w3.org/2000/svg">
<path d="M6 6.10465C7.51481 6.10465 8.74281 4.85521 8.74281 3.31395C8.74281 1.77269 7.51481 0.523256 6 0.523256C4.48518 0.523256 3.25718 1.77269 3.25718 3.31395C3.25718 4.85521 4.48518 6.10465 6 6.10465Z" fill="black"/>
<path d="M11.4856 11.3372C11.4856 13.0711 11.4856 14.4767 6 14.4767C0.51437 14.4767 0.51437 13.0711 0.51437 11.3372C0.51437 9.60327 2.97037 8.19767 6 8.19767C9.02965 8.19767 11.4856 9.60327 11.4856 11.3372Z" fill="black"/>
<path d="M10.9714 11.3372C10.9714 10.7432 10.5453 10.0989 9.62682 9.57327C8.72446 9.05683 7.44324 8.72093 6.00001 8.72093C4.55679 8.72093 3.27556 9.05683 2.3732 9.57327C1.45473 10.0989 1.02865 10.7432 1.02865 11.3372C1.02865 12.2496 1.05629 12.7633 1.52481 13.1515C1.77888 13.362 2.20362 13.5674 2.93065 13.7172C3.65541 13.8664 4.64628 13.9535 6.00001 13.9535C7.35374 13.9535 8.34461 13.8664 9.06937 13.7172C9.79639 13.5674 10.2211 13.362 10.4752 13.1515C10.9437 12.7633 10.9714 12.2496 10.9714 11.3372ZM8.22854 3.31395C8.22854 2.06168 7.23078 1.04651 5.99999 1.04651C4.76921 1.04651 3.77146 2.06168 3.77146 3.31395C3.77146 4.56622 4.76921 5.5814 5.99999 5.5814C7.23078 5.5814 8.22854 4.56622 8.22854 3.31395ZM11.9999 11.3372C11.9999 12.1587 12.0276 13.2148 11.1247 13.9629C10.693 14.3206 10.0892 14.5749 9.27341 14.7429C8.45533 14.9113 7.38909 15 6.00001 15C4.61093 15 3.54467 14.9113 2.72659 14.7429C1.91079 14.5749 1.30696 14.3206 0.875329 13.9629C-0.02755 13.2148 9.18766e-05 12.1587 9.20485e-05 11.3372C9.20485e-05 10.1972 0.802016 9.27177 1.86895 8.66115C2.952 8.0413 4.4136 7.67442 6.00001 7.67442C7.58642 7.67442 9.04802 8.0413 10.1311 8.66115C11.198 9.27177 11.9999 10.1973 11.9999 11.3372ZM9.2571 3.31395C9.2571 5.14419 7.79883 6.62791 5.99999 6.62791C4.20115 6.62791 2.7429 5.14419 2.7429 3.31395C2.74291 1.48371 4.20115 3.45205e-06 5.99999 0C7.79883 0 9.2571 1.4837 9.2571 3.31395Z" fill="black"/>
</svg>
